# xmcd
#
# Track frame offsets:
#	150
#	21940
#	38287
#	61230
#	84925
#	108527
#	132290
#	160672
#	187567
#	208480
#	225000
#
# Disc length: 3351 seconds
#
# Revision: 1
# Processed by: cddbd v1.5.2PL0 Copyright (c) Steve Scherf et al.
# Submitted via: audiograbber 1.83.01
#
DISCID=780d150b
DTITLE=Paul Jackson Jr. - The Power of The String
DYEAR=2001
DGENRE=
TTITLE0=on eagle's wings
TTITLE1=bounce wid' it
TTITLE2=pour noelle
TTITLE3=rock steady
TTITLE4=you always satisfy
TTITLE5=tomorrow
TTITLE6=p.j. iii
TTITLE7=you don't have to tell her
TTITLE8=t.j.o.
TTITLE9=inner city blues
TTITLE10=woltz for wande
EXTD=
EXTT0=
EXTT1=
EXTT2=
EXTT3=
EXTT4=
EXTT5=
EXTT6=
EXTT7=
EXTT8=
EXTT9=
EXTT10=
PLAYORDER=
